<svg xmlns="http://www.w3.org/2000/svg" viewBox="0 0 353.56 58.16"><defs><style>.cls-1{fill:#0c2e40;}.cls-2{fill:#00263a;}.cls-3{fill:#10cfc9;}.cls-4{fill:#293896;}.cls-5{fill:#ed1c24;}</style></defs><title>Recurso 20</title><g id="Capa_2" data-name="Capa 2"><g id="Capa_1-2" data-name="Capa 1"><rect class="cls-1" x="179.63" y="3.14" width="1.16" height="53.32"/><g id="e-dental_horizontal_chile"><g id="logotipo"><rect class="cls-2" x="161.06" y="23.96" width="3.65" height="18.33" rx="0.11"/><path class="cls-2" d="M158.11,29.61H155a.12.12,0,0,0-.11.1c0,.26,0,.94-.06,1.22a.05.05,0,0,1-.09,0,5.63,5.63,0,0,0-4-1.68,6.65,6.65,0,0,0,0,13.3,5.6,5.6,0,0,0,4-1.66.05.05,0,0,1,.09,0c0,.29,0,1,.06,1.23a.13.13,0,0,0,.11.11h3.08a.11.11,0,0,0,.11-.11V29.72A.11.11,0,0,0,158.11,29.61Zm-6.9,9.67a3.33,3.33,0,1,1,3.33-3.34A3.34,3.34,0,0,1,151.21,39.28Z"/><path class="cls-2" d="M139.15,29.55v-3a.11.11,0,0,0-.11-.11h-3.43a.11.11,0,0,0-.11.11v10.9a5,5,0,0,0,5.19,5.17,5.07,5.07,0,0,0,2.53-.53l.16-.1a.1.1,0,0,0,.06-.09v-3a.12.12,0,0,0-.15-.1l-.44.15a5.45,5.45,0,0,1-1.72.36,1.89,1.89,0,0,1-2-2.12V32.76a.06.06,0,0,1,0-.06h4.1a.11.11,0,0,0,.11-.11V29.72a.11.11,0,0,0-.11-.11h-4.1A.06.06,0,0,1,139.15,29.55Z"/><path class="cls-2" d="M127.24,29.29A4.88,4.88,0,0,0,123.55,31a.06.06,0,0,1-.1,0c0-.41,0-.82-.07-1.23a.11.11,0,0,0-.11-.1h-3.1a.11.11,0,0,0-.11.11V42.19a.11.11,0,0,0,.11.11h3.43a.11.11,0,0,0,.11-.11V35.77a3,3,0,0,1,2.8-3.12,2.89,2.89,0,0,1,2.79,3v6.52a.1.1,0,0,0,.1.11h3.43a.11.11,0,0,0,.11-.11V35.41C132.94,31.87,130.55,29.29,127.24,29.29Z"/><path class="cls-2" d="M116.49,31.5a6.54,6.54,0,0,0-5.07-2.21,7,7,0,0,0-5,2,6.54,6.54,0,0,0-1.93,4.69,6.39,6.39,0,0,0,2,4.76,7.19,7.19,0,0,0,5,1.89A6.85,6.85,0,0,0,118,38.65l.1-.26a.11.11,0,0,0-.09-.15l-3.37-.18a.1.1,0,0,0-.1.06l0,0a3.17,3.17,0,0,1-2.87,1.3,3.33,3.33,0,0,1-3.27-2.09.11.11,0,0,1,.1-.15h9.77a.11.11,0,0,0,.11-.11c0-.13,0-.34,0-.34A7.87,7.87,0,0,0,116.49,31.5Zm-2.09,2.91h-6a.05.05,0,0,1,0-.08,3.09,3.09,0,0,1,3.09-1.9,3,3,0,0,1,3,1.9A.05.05,0,0,1,114.4,34.41Z"/><path class="cls-2" d="M94.53,25.17H86.92a.1.1,0,0,0-.1.11V42.19a.1.1,0,0,0,.1.11h7.66a9,9,0,0,0,6.25-2.52,8.38,8.38,0,0,0,2.6-6A8.75,8.75,0,0,0,94.53,25.17Zm0,13.62H90.64a0,0,0,0,1,0,0v-10a0,0,0,0,1,0-.05h3.89a5.06,5.06,0,1,1,0,10.11Z"/><rect class="cls-2" x="81.09" y="34.41" width="3.49" height="2.8" rx="0.11"/><path class="cls-2" d="M77,31.5a6.56,6.56,0,0,0-5.08-2.21,7,7,0,0,0-5,2A6.54,6.54,0,0,0,65,35.94a6.43,6.43,0,0,0,2,4.76,7.19,7.19,0,0,0,5,1.89,6.87,6.87,0,0,0,6.45-3.94,2.36,2.36,0,0,1,.1-.26.12.12,0,0,0-.1-.15l-3.36-.18a.1.1,0,0,0-.11.06v0a3.19,3.19,0,0,1-2.87,1.3,3.34,3.34,0,0,1-3.28-2.09.11.11,0,0,1,.1-.15h9.77a.11.11,0,0,0,.11-.11c0-.13,0-.34,0-.34A7.91,7.91,0,0,0,77,31.5Zm-2.09,2.91h-6s-.06,0,0-.08a3.1,3.1,0,0,1,3.09-1.9,3,3,0,0,1,3,1.9S75,34.41,74.92,34.41Z"/></g><g id="símbolo"><path class="cls-3" d="M51.51,13V11.64a5.51,5.51,0,0,0-11,0V13a5.51,5.51,0,1,0,11,0Z"/><path class="cls-3" d="M.13,27.31a2.36,2.36,0,0,1,3-2,91.71,91.71,0,0,0,50.1,0,2.37,2.37,0,0,1,3,2,28.17,28.17,0,1,1-56.09,0Z"/></g><path class="cls-3" d="M144.9,48.55l-.55.68a1.51,1.51,0,0,0-1.1-.55,1.3,1.3,0,0,0,0,2.59,1.63,1.63,0,0,0,1.1-.49l.56.61a2.51,2.51,0,0,1-1.71.75,2.15,2.15,0,1,1,0-4.29A2.37,2.37,0,0,1,144.9,48.55Z"/><path class="cls-3" d="M149.84,52.1V50.44h-1.91V52.1h-1V47.88h1v1.76h1.91V47.88h.95V52.1Z"/><path class="cls-3" d="M153.22,52.1V47.88h.95V52.1Z"/><path class="cls-3" d="M159.37,51.27v.83h-2.76V47.88h.95v3.39Z"/><path class="cls-3" d="M162.39,48.67v.92h2v.79h-2v.93h2.32v.79h-3.27V47.88h3.21v.79Z"/></g><path class="cls-4" d="M272,31l-1.72,8.61c-.76,3.49-2.86,5.82-7.16,5.82-4.93,0-6.23-3.06-5.15-7.36,1.53-6.1,6.51-7.92,14-7.07m7.77-12.31-5.24.34-1.66,8.43c-2-.08-2.64-.14-5-.14-7.38,0-13.82,3.1-15.52,10.37-1.53,6.56,2.2,11.65,10.32,11.65,8.32,0,11.94-4.34,13.24-10.45Z"/><path class="cls-4" d="M222.86,31.38c-7.69-.7-14.3-.06-14.41,2.54-.16,3.92,12.67.5,12.42,7.71-.36,10.59-18.2,8.15-22.62,6.81l.8-3.15c7.61,1.21,15.65,1.31,15.82-2.89.19-4.46-12.7-.45-12.39-7.68.22-5.38,8.28-8.28,21.46-6.35l-1.08,3"/><path class="cls-4" d="M243.58,38.58a9,9,0,0,1-8.79,7.2c-4.36,0-6.33-2.53-5.16-7.2,1.11-4.42,4.66-7.39,8.83-7.39s6.23,3,5.12,7.39m-4.45-11c-7.64,0-13.78,4.43-15.29,11s2.6,11,10.24,11,13.78-4.42,15.3-11S246.77,27.57,239.13,27.57Z"/><path class="cls-4" d="M327.44,49.48H320.8a120.09,120.09,0,0,1-17.41-21.7h4.87c5.39,7.43,19.18,21.7,19.18,21.7"/><polyline class="cls-4" points="334.4 6.37 337.46 0 338.33 6.48 344.56 4.3 340.21 9.88 344.93 13.54 338.63 14.03 338.28 20.77 334.78 15.79 329.62 20.54 331.55 13.84 325.48 13.02 331.39 9.65 328.96 3.88 334.4 6.37"/><path class="cls-4" d="M347.36,38.65A9.17,9.17,0,0,1,338.43,46c-4.43,0-6.43-2.57-5.24-7.31,1.13-4.49,4.73-7.51,9-7.51s6.33,3,5.2,7.51m-4.52-11.19c-7.76,0-14,4.5-15.54,11.19S330,49.83,337.71,49.83s14-4.49,15.54-11.18S350.61,27.46,342.84,27.46Z"/><path class="cls-5" d="M298.35,47.63c12.55-7,23.45-17.68,31.18-26.94-5.56,17.4-18.94,26.76-31.18,26.94"/><path class="cls-4" d="M293.39,30.8c2.4,0,3.71.88,3.71,2.54,0,4.43-8.63,4.13-12.43,3.36a9.15,9.15,0,0,1,8.72-5.9m8.88,2.3c0-3.21-2.56-5.57-8.36-5.57-9.41,0-15.52,6.11-15.52,13.67,0,4.89,4.05,8.94,11.45,8.94a15.46,15.46,0,0,0,8.51-2.51c-6.49.7-14.46,0-14.46-7,0-.27,0-.55,0-.82C292.78,41.7,302.27,39.47,302.27,33.1Z"/></g></g></svg>