<svg xmlns="http://www.w3.org/2000/svg" viewBox="0 0 334.53 55.02"><defs><style>.cls-1{fill:#ff061e;}.cls-2{fill:#0c2e40;}.cls-3{fill:#00263a;}.cls-4{fill:#10cfc9;}</style></defs><title>Recurso 2</title><g id="Capa_2" data-name="Capa 2"><g id="Capa_1-2" data-name="Capa 1"><g id="layer1"><g id="g19696"><path id="path19698" class="cls-1" d="M220.27,22.72A8.85,8.85,0,0,0,218,23l-.1,1A14.05,14.05,0,0,0,203,25c-4.06,3-5.86,6.8-5.86,10.75a10.58,10.58,0,0,0,3.61,7.94A12.72,12.72,0,0,0,206,46.32a16.85,16.85,0,0,0,6.83-.16,11.6,11.6,0,0,0,3.07-1.32,5.71,5.71,0,0,0,4.4.84L222.54,23A8.15,8.15,0,0,0,220.27,22.72Zm-4.39,20-1.54-1.94a6.89,6.89,0,0,1-4.82,1.6c-3-.14-4.72-.82-6.52-3s-1.87-6.43.57-9.25a9.43,9.43,0,0,1,7.58-3.54,8.09,8.09,0,0,1,6.15,2.57Z"/><path id="path19700" class="cls-1" d="M227.44,11.7l-2.83,27.19a7.27,7.27,0,0,0,2.15.28,12.54,12.54,0,0,0,2.39-.23l1-9.75a10.44,10.44,0,0,1,7-2.64,7.31,7.31,0,0,1,7.62,7,8.88,8.88,0,0,1-5.44,7.9c-2.71,1.16-7.18,1.49-10-2a13.18,13.18,0,0,0-3.53,3A11.77,11.77,0,0,0,235,46.59a14.93,14.93,0,0,0,12.45-6.86c1.78-2.93,3.76-8.95-1.06-13.87S234.18,22,230.77,24L232,11.7a9.84,9.84,0,0,0-4.56,0Z"/><path id="path19702" class="cls-1" d="M271,29.26a11.33,11.33,0,0,0,3.41-3.18,11.76,11.76,0,0,0-9-3.78,15,15,0,0,0-9.45,3.44s-4.9,3.81-4.9,9.81,4.79,11,11.7,11a14.62,14.62,0,0,0,9.91-3.74,8,8,0,0,0-2.72-3.28,9.63,9.63,0,0,1-6.59,2.76c-4.05,0-7.66-2.83-7.66-7.18s4.21-8.58,9.31-8.58a7.88,7.88,0,0,1,6,2.69Z"/><path id="path19704" class="cls-1" d="M294.59,24a12,12,0,0,0-6.43-1.69,15,15,0,0,0-10.65,4.55,12.71,12.71,0,0,0-3.67,8.8,10.41,10.41,0,0,0,4.3,8.58,12.61,12.61,0,0,0,7.68,2.36,15.13,15.13,0,0,0,9.83-4,9.23,9.23,0,0,0-2.9-3A9.71,9.71,0,0,1,286,42.31c-4.25,0-7.56-3.19-7.56-7a9.12,9.12,0,0,1,9.38-8.79,8,8,0,0,1,6.27,2.58l-1,9.78a10,10,0,0,0,4.59,0l2.86-27.19a9.18,9.18,0,0,0-4.61,0L294.62,24Z"/><path id="path19706" class="cls-1" d="M301.14,45.88a9.93,9.93,0,0,0,4.58,0L308.11,23a9.18,9.18,0,0,0-4.61,0Z"/><path id="path19708" class="cls-1" d="M306.38,15a3,3,0,1,1-3,3A3,3,0,0,1,306.38,15Z"/><path id="path19710" class="cls-1" d="M328.91,23a12,12,0,0,0-8.46,0,14.67,14.67,0,0,0-3.72,2.39h0L317,23a9.2,9.2,0,0,0-4.61,0L310,45.88a10,10,0,0,0,4.59,0l1.67-16c2.61-3.66,7.62-3.5,7.82-3.5a6.09,6.09,0,0,1,4.21,1.51,5.13,5.13,0,0,1,1.46,4.23l-1.39,13.76a10.3,10.3,0,0,0,4.53,0s1-8.94,1.57-13.45A8.77,8.77,0,0,0,328.91,23Z"/></g></g><rect class="cls-2" x="179.63" width="1.16" height="53.32"/><g id="e-dental_horizontal_chile"><g id="logotipo"><rect class="cls-3" x="161.06" y="20.82" width="3.65" height="18.33" rx="0.11"/><path class="cls-3" d="M158.11,26.47H155a.13.13,0,0,0-.11.1c0,.26,0,.94-.06,1.22a.05.05,0,0,1-.09,0,5.62,5.62,0,0,0-4-1.67,6.65,6.65,0,0,0,0,13.29,5.6,5.6,0,0,0,4-1.66.05.05,0,0,1,.09,0c0,.29,0,1,.06,1.23a.13.13,0,0,0,.11.11h3.08a.11.11,0,0,0,.11-.11V26.58A.11.11,0,0,0,158.11,26.47Zm-6.9,9.67a3.33,3.33,0,1,1,3.33-3.34A3.34,3.34,0,0,1,151.21,36.14Z"/><path class="cls-3" d="M139.15,26.42v-3a.11.11,0,0,0-.11-.11h-3.43a.11.11,0,0,0-.11.11v10.9a5,5,0,0,0,5.19,5.17,5.07,5.07,0,0,0,2.53-.53l.16-.09a.11.11,0,0,0,.06-.1v-3a.12.12,0,0,0-.15-.11l-.44.15a5.19,5.19,0,0,1-1.72.36,1.89,1.89,0,0,1-2-2.12V29.62a.06.06,0,0,1,0-.06h4.1a.11.11,0,0,0,.11-.11V26.58a.11.11,0,0,0-.11-.11h-4.1A0,0,0,0,1,139.15,26.42Z"/><path class="cls-3" d="M127.24,26.16a4.87,4.87,0,0,0-3.69,1.67.06.06,0,0,1-.1,0c0-.41,0-.82-.07-1.23a.12.12,0,0,0-.11-.1h-3.1a.11.11,0,0,0-.11.11V39.05a.11.11,0,0,0,.11.11h3.43a.11.11,0,0,0,.11-.11V32.63a3,3,0,0,1,2.8-3.12,2.89,2.89,0,0,1,2.79,3v6.51a.1.1,0,0,0,.1.11h3.43a.11.11,0,0,0,.11-.11V32.27C132.94,28.73,130.55,26.16,127.24,26.16Z"/><path class="cls-3" d="M116.49,28.36a6.53,6.53,0,0,0-5.07-2.2,7,7,0,0,0-5,1.95,6.54,6.54,0,0,0-1.93,4.69,6.39,6.39,0,0,0,2,4.76,7.19,7.19,0,0,0,5,1.89A6.85,6.85,0,0,0,118,35.51l.1-.26a.11.11,0,0,0-.09-.15l-3.37-.18a.11.11,0,0,0-.1.06l0,0a3.15,3.15,0,0,1-2.87,1.3,3.33,3.33,0,0,1-3.27-2.09.11.11,0,0,1,.1-.15h9.77a.11.11,0,0,0,.11-.11c0-.13,0-.33,0-.33A7.91,7.91,0,0,0,116.49,28.36Zm-2.09,2.91h-6a.05.05,0,0,1,0-.08,3.08,3.08,0,0,1,3.09-1.89,3,3,0,0,1,3,1.89A.05.05,0,0,1,114.4,31.27Z"/><path class="cls-3" d="M94.53,22H86.92a.1.1,0,0,0-.1.11v16.9a.1.1,0,0,0,.1.11h7.66a9,9,0,0,0,6.25-2.52,8.38,8.38,0,0,0,2.6-6A8.74,8.74,0,0,0,94.53,22Zm0,13.61H90.64a0,0,0,0,1,0,0v-10a0,0,0,0,1,0-.05h3.89a5.06,5.06,0,1,1,0,10.11Z"/><rect class="cls-3" x="81.09" y="31.27" width="3.49" height="2.8" rx="0.11"/><path class="cls-3" d="M77,28.36a6.55,6.55,0,0,0-5.08-2.2,7,7,0,0,0-5,1.95A6.54,6.54,0,0,0,65,32.8a6.43,6.43,0,0,0,2,4.76,7.19,7.19,0,0,0,5,1.89,6.87,6.87,0,0,0,6.45-3.94,2.36,2.36,0,0,1,.1-.26.12.12,0,0,0-.1-.15l-3.36-.18A.11.11,0,0,0,75,35v0a3.16,3.16,0,0,1-2.87,1.3,3.34,3.34,0,0,1-3.28-2.09.11.11,0,0,1,.1-.15h9.77a.11.11,0,0,0,.11-.11c0-.13,0-.33,0-.33A8,8,0,0,0,77,28.36Zm-2.09,2.91h-6s-.06,0,0-.08a3.09,3.09,0,0,1,3.09-1.89,3,3,0,0,1,3,1.89S75,31.27,74.92,31.27Z"/></g><g id="símbolo"><path class="cls-4" d="M51.51,9.83V8.51a5.51,5.51,0,1,0-11,0V9.83a5.51,5.51,0,0,0,11,0Z"/><path class="cls-4" d="M.13,24.18a2.35,2.35,0,0,1,3-2.05,91.9,91.9,0,0,0,50.1,0,2.36,2.36,0,0,1,3,2.05,28.17,28.17,0,1,1-56.09,0Z"/></g><path class="cls-4" d="M144.9,45.41l-.55.68a1.55,1.55,0,0,0-1.1-.55,1.3,1.3,0,0,0,0,2.59,1.63,1.63,0,0,0,1.1-.49l.56.61a2.47,2.47,0,0,1-1.71.75,2.15,2.15,0,1,1,0-4.29A2.42,2.42,0,0,1,144.9,45.41Z"/><path class="cls-4" d="M149.84,49V47.3h-1.91V49h-1V44.75h1V46.5h1.91V44.75h.95V49Z"/><path class="cls-4" d="M153.22,49V44.75h.95V49Z"/><path class="cls-4" d="M159.37,48.13V49h-2.76V44.75h.95v3.38Z"/><path class="cls-4" d="M162.39,45.53v.92h2v.79h-2v.93h2.32V49h-3.27V44.75h3.21v.78Z"/></g></g></g></svg>