<svg xmlns="http://www.w3.org/2000/svg" viewBox="0 0 155.31 50.14"><defs><style>.cls-1{fill:#293896;}.cls-2{fill:#ed1c24;}</style></defs><title>Recurso 19</title><g id="Capa_2" data-name="Capa 2"><g id="Capa_1-2" data-name="Capa 1"><path class="cls-1" d="M73.7,31,72,39.62c-.76,3.49-2.86,5.82-7.16,5.82-4.93,0-6.23-3.06-5.15-7.36,1.54-6.1,6.51-7.92,14-7.07M81.47,18.7,76.23,19l-1.66,8.43c-2-.08-2.63-.14-5-.14-7.38,0-13.81,3.1-15.51,10.37-1.54,6.56,2.19,11.65,10.31,11.65,8.32,0,11.94-4.34,13.24-10.45Z"/><path class="cls-1" d="M24.61,31.38c-7.69-.7-14.3-.06-14.41,2.54-.16,3.92,12.67.5,12.42,7.71C22.26,52.22,4.42,49.78,0,48.44l.8-3.15C8.42,46.5,16.45,46.6,16.62,42.4c.19-4.46-12.7-.45-12.39-7.68.22-5.38,8.28-8.28,21.46-6.35l-1.08,3"/><path class="cls-1" d="M45.33,38.58a9,9,0,0,1-8.79,7.2c-4.36,0-6.33-2.53-5.16-7.2,1.11-4.42,4.66-7.39,8.83-7.39s6.23,3,5.12,7.39m-4.44-11c-7.65,0-13.79,4.43-15.3,11s2.6,11,10.24,11,13.78-4.42,15.3-11S48.53,27.57,40.89,27.57Z"/><path class="cls-1" d="M129.19,49.48h-6.64a120.09,120.09,0,0,1-17.41-21.7H110c5.39,7.43,19.18,21.7,19.18,21.7"/><polyline class="cls-1" points="136.16 6.37 139.21 0 140.08 6.48 146.32 4.3 141.96 9.88 146.68 13.54 140.38 14.03 140.03 20.77 136.53 15.79 131.38 20.54 133.31 13.84 127.23 13.02 133.14 9.65 130.72 3.88 136.16 6.37"/><path class="cls-1" d="M149.11,38.65A9.17,9.17,0,0,1,140.19,46c-4.44,0-6.43-2.57-5.24-7.31,1.12-4.49,4.73-7.51,9-7.51s6.33,3,5.2,7.51M144.6,27.46c-7.76,0-14,4.5-15.54,11.19s2.64,11.18,10.4,11.18,14-4.49,15.54-11.18S152.36,27.46,144.6,27.46Z"/><path class="cls-2" d="M100.1,47.63c12.55-7,23.45-17.68,31.18-26.94-5.56,17.4-18.94,26.76-31.18,26.94"/><path class="cls-1" d="M95.14,30.8c2.4,0,3.71.88,3.71,2.54,0,4.43-8.63,4.13-12.43,3.36a9.15,9.15,0,0,1,8.72-5.9M104,33.1c0-3.21-2.56-5.57-8.36-5.57-9.41,0-15.52,6.11-15.52,13.67,0,4.89,4,8.94,11.45,8.94a15.42,15.42,0,0,0,8.51-2.51c-6.49.7-14.46,0-14.46-7a7.5,7.5,0,0,1,0-.82C94.53,41.7,104,39.47,104,33.1Z"/></g></g></svg>